<?xml version="1.0" standalone="no"?>
<!DOCTYPE svg PUBLIC "-//W3C//DTD SVG 20010904//EN"
 "http://www.w3.org/TR/2001/REC-SVG-20010904/DTD/svg10.dtd">
<svg version="1.0" xmlns="http://www.w3.org/2000/svg"
 width="1280.000000pt" height="1280.000000pt" viewBox="0 0 1280.000000 1280.000000"
 preserveAspectRatio="xMidYMid meet">
<g transform="translate(0.000000,1280.000000) scale(0.100000,-0.100000)"
fill="#000000" stroke="none">
<path d="M6145 12660 c-733 -30 -1463 -189 -2131 -465 -203 -84 -578 -269
-759 -375 -948 -555 -1721 -1328 -2275 -2275 -106 -181 -291 -556 -375 -759
-460 -1114 -586 -2363 -359 -3566 73 -390 206 -835 359 -1206 84 -203 269
-578 375 -759 555 -947 1328 -1720 2275 -2275 181 -106 556 -291 759 -375 610
-252 1257 -403 1951 -456 193 -14 677 -14 870 0 580 44 1081 147 1616 330 482
165 1004 426 1441 719 667 447 1263 1043 1710 1710 215 321 449 756 593 1106
513 1245 609 2654 269 3966 -58 223 -183 599 -268 805 -85 205 -271 580 -376
760 -555 947 -1328 1720 -2275 2275 -181 106 -556 291 -759 375 -555 229
-1157 379 -1767 440 -144 14 -581 36 -659 33 -19 -1 -116 -4 -215 -8z"/>
</g>
</svg>
